# xmcd
#
# Track frame offsets:
#	150
#	10134
#	18694
#	31135
#	41817
#	56327
#	68629
#	80814
#	91408
#	102568
#	113893
#	126230
#	134291
#	145931
#	155383
#	163730
#	173908
#	183604
#	193677
#	205201
#	218036
#	226310
#	234525
#	246212
#	256222
#	268444
#	280638
#
# Disc length: 3884 seconds
#
# Revision: 0
# Processed by: cddbd v1.5.2PL0 Copyright (c) Steve Scherf et al.
# Submitted via: audiograbber 1.83.01
#
DISCID=8c0f2a1b
DTITLE=Chuck Berry - Chess Box disc 2 1958 - 1964
DYEAR=1988
DGENRE=Rock and Roll
TTITLE0=Memphis
TTITLE1=Anthony Boy
TTITLE2=Jo Jo Gunne
TTITLE3=Sweet Little Rock 'N' Roller
TTITLE4=Merry Christmas Baby
TTITLE5=Run Rudolph Run
TTITLE6=Little Queenie
TTITLE7=Almost Grown
TTITLE8=Back In The U.S.A.
TTITLE9=Betty Jean
TTITLE10=Childhood Sweetheart
TTITLE11=Let It Rock
TTITLE12=To Pooped To Pop
TTITLE13=Bye Bye Johny
TTITLE14=Jaguar And Thunderbird
TTITLE15=Down The Road Apiece
TTITLE16=Confessin' The Blues
TTITLE17=Thirteen Question Method
TTITLE18=Crying Steel
TTITLE19=I'm Just A Lucky So And So
TTITLE20=I'm Talking About You
TTITLE21=Come On
TTITLE22=Nadine (Is It You?)
TTITLE23=Crazy Arms
TTITLE24=You Never Can Tell
TTITLE25=The Things You Used To Do
TTITLE26=Promised Land
EXTD=
EXTT0=
EXTT1=
EXTT2=
EXTT3=
EXTT4=
EXTT5=
EXTT6=
EXTT7=
EXTT8=
EXTT9=
EXTT10=
EXTT11=
EXTT12=
EXTT13=
EXTT14=
EXTT15=
EXTT16=
EXTT17=
EXTT18=
EXTT19=
EXTT20=
EXTT21=
EXTT22=
EXTT23=
EXTT24=
EXTT25=
EXTT26=
PLAYORDER=
